{"title":"Hannibal.Rising.2007.BRRip.480p.x264.AAC-VYTO [P2PDL]","uid":12222793,"size":480134088,"categoryP":"video","categoryS":"movies","magnet":"?xt=urn:btih:d6ef88111aafa96afdba69ab06bf444cf6674eea&amp;dn=Hannibal.Rising.2007.BRRip.480p.x264.AAC-VYTO+%5BP2PDL%5D&amp;tr=udp%3A%2F%2Ftracker.openbittorrent.com%3A80&amp;tr=udp%3A%2F%2Fopen.demonii.com%3A1337&amp;tr=udp%3A%2F%2Ftracker.coppersurfer.tk%3A6969&amp;tr=udp%3A%2F%2Fexodus.desync.com%3A6969","seeders":1,"leechers":0,"uploader":"ValidusVyto","files":7,"time":1439392762,"description":"____    ____ ____    ____ .___________.  ______   \n     /   /      /   / |           | /  __    \n    /   /      /   /  `---|  |----`|  |  |  | \n        /     _    _/       |  |     |  |  |  | \n       /        |  |         |  |     |  `--'  | \n    __/         |__|         |__|      ______/  \n                                                  \nPresenting Small Encodes with quality for years!\n                                                                                                   \n                                                                                                   \n\nHannibal.Rising.2007.BRRip.480p.x264.AAC-VYTO\n\n\nGenre: Crime, Drama, Thriller &lt;a href=&quot;\nhttp://www.imdb.com/title/tt0367959/&quot; rel=&quot;nofollow&quot; target=&quot;_NEW&quot;&gt;\nhttp://www.imdb.com/title/tt0367959/&lt;/a&gt;\n\n\nGeneral\nFormat                         : MPEG-4\nFile size                      : 452 MiB\nDuration                       : 2h 10mn\nOverall bit rate               : 484 Kbp\n\nVideo\nFormat                         : AVC\nBit rate                       : 449 Kbps\nWidth                          : 720 pixels\nHeight                         : 304 pixels\nDisplay aspect ratio           : 2.35:1\nFrame rate mode                : Constant\nFrame rate                     : 23.976 fps\nBit depth                      : 8 bits\nStream size                    : 419 MiB (93%)\nWriting library                : x264 core 148 r2579\n\nAudio\nFormat                         : AAC\nBit rate mode                  : Variable\nBit rate                       : 32.0 Kbps\nChannel(s)                     : 2 channels \nChannel positions              : Front: L R \nSampling rate                  : 48.0 KHz \nStream size                    : 29.9 MiB (7%)\n\nSubtitle                       : Yes\nSource                     \t   : UNRATED.720p.BluRay.x264.DTS-WiKi\t\t\n\nScreenshots:\n &lt;a href=&quot;\nhttp://ititli.com/GK&quot; rel=&quot;nofollow&quot; target=&quot;_NEW&quot;&gt;\nhttp://ititli.com/GK&lt;/a&gt; &lt;a href=&quot;\nhttp://ititli.com/GV&quot; rel=&quot;nofollow&quot; target=&quot;_NEW&quot;&gt;\nhttp://ititli.com/GV&lt;/a&gt; &lt;a href=&quot;\nhttp://ititli.com/Gt&quot; rel=&quot;nofollow&quot; target=&quot;_NEW&quot;&gt;\nhttp://ititli.com/Gt&lt;/a&gt; &lt;a href=&quot;\nhttp://ititli.com/GL&quot; rel=&quot;nofollow&quot; target=&quot;_NEW&quot;&gt;\nhttp://ititli.com/GL&lt;/a&gt; &lt;a href=&quot;\nhttp://ititli.com/Gd&quot; rel=&quot;nofollow&quot; target=&quot;_NEW&quot;&gt;\nhttp://ititli.com/Gd&lt;/a&gt; &lt;a href=&quot;\nhttp://ititli.com/G0&quot; rel=&quot;nofollow&quot; target=&quot;_NEW&quot;&gt;\nhttp://ititli.com/G0&lt;/a&gt; &lt;a href=&quot;\nhttp://ititli.com/GA&quot; rel=&quot;nofollow&quot; target=&quot;_NEW&quot;&gt;\nhttp://ititli.com/GA&lt;/a&gt; &lt;a href=&quot;\nhttp://ititli.com/Gl&quot; rel=&quot;nofollow&quot; target=&quot;_NEW&quot;&gt;\nhttp://ititli.com/Gl&lt;/a&gt; &lt;a href=&quot;\nhttp://ititli.com/Gm&quot; rel=&quot;nofollow&quot; target=&quot;_NEW&quot;&gt;\nhttp://ititli.com/Gm&lt;/a&gt; &lt;a href=&quot;\nhttp://ititli.com/Gx&quot; rel=&quot;nofollow&quot; target=&quot;_NEW&quot;&gt;\nhttp://ititli.com/Gx&lt;/a&gt; &lt;a href=&quot;\nhttp://ititli.com/G7&quot; rel=&quot;nofollow&quot; target=&quot;_NEW&quot;&gt;\nhttp://ititli.com/G7&lt;/a&gt; &lt;a href=&quot;\nhttp://ititli.com/GC&quot; rel=&quot;nofollow&quot; target=&quot;_NEW&quot;&gt;\nhttp://ititli.com/GC&lt;/a&gt;\n\n----------------------------------------------------------------------------------------------------\n\n\nEncoder Notes: Looking For Early Access To Anything You Can Provide DVDScr, R5, DVDR, BluRay, Direct\nAudio, Music Releases and Seedboxes. If You Got anything to offer please contact us.\n\nSupport us by donating BC - 1FgwdzPsd1y25Gea8wP1qni35uGCtmkRCD","torrent":{"xt":"urn:btih:d6ef88111aafa96afdba69ab06bf444cf6674eea","amp;dn":"Hannibal.Rising.2007.BRRip.480p.x264.AAC-VYTO+%5BP2PDL%5D","amp;tr":["udp%3A%2F%2Ftracker.openbittorrent.com%3A80","udp%3A%2F%2Fopen.demonii.com%3A1337","udp%3A%2F%2Ftracker.coppersurfer.tk%3A6969","udp%3A%2F%2Fexodus.desync.com%3A6969"],"infoHash":"d6ef88111aafa96afdba69ab06bf444cf6674eea","infoHashBuffer":{"type":"Buffer","data":[214,239,136,17,26,175,169,106,253,186,105,171,6,191,68,76,246,103,78,234]},"announce":[],"urlList":[]}}